<svg xmlns="http://www.w3.org/2000/svg" viewBox="0 0 100 100" width="100" height="100">
  <!-- Darfash - Mandaean religious banner/cross -->
  <!-- Vertical pole -->
  <rect x="47" y="5" width="6" height="90" rx="2" fill="currentColor"/>
  <!-- Horizontal crossbar -->
  <rect x="25" y="20" width="50" height="5" rx="2" fill="currentColor"/>
  <!-- Draped cloth left -->
  <path d="M25 22.5 Q20 35, 30 50 Q35 42, 35 30 Q33 26, 25 22.5Z" fill="currentColor" opacity="0.7"/>
  <!-- Draped cloth right -->
  <path d="M75 22.5 Q80 35, 70 50 Q65 42, 65 30 Q67 26, 75 22.5Z" fill="currentColor" opacity="0.7"/>
  <!-- Myrtle branch left -->
  <path d="M44 15 Q35 10, 28 12 Q32 14, 38 16 Q40 17, 44 15Z" fill="currentColor" opacity="0.5"/>
  <!-- Myrtle branch right -->
  <path d="M56 15 Q65 10, 72 12 Q68 14, 62 16 Q60 17, 56 15Z" fill="currentColor" opacity="0.5"/>
</svg>
